<?xml version="1.0" encoding="UTF-8"?>
<svg width="107px" height="33px" viewBox="0 0 107 33" version="1.1" xmlns="http://www.w3.org/2000/svg" xmlns:xlink="http://www.w3.org/1999/xlink">
    <!-- Generator: Sketch 63.1 (92452) - https://sketch.com -->
    <title>KENZAP</title>
    <desc>Created with Sketch.</desc>
    <g id="Kenzap-Service-Page" stroke="none" stroke-width="1" fill="none" fill-rule="evenodd">
        <g id="Service-Desktop" transform="translate(-33.000000, -39.000000)" fill="#191718" fill-rule="nonzero">
            <g id="HEADER">
                <g id="Logo" transform="translate(34.000000, 39.000000)">
                    <path d="M-0.476,32.2 L-0.476,0.2 L4.68974586,0.2 L4.68974586,13.6857143 L11.2643315,0.2 L16.4300773,0.2 L10.2781436,11.9485714 L16.524,32.2 L11.1234475,32.2 L6.7560442,17.9371429 L4.68974586,22.0057143 L4.68974586,32.2 L-0.476,32.2 Z M18.524,32.2 L18.524,0.2 L32.524,0.2 L32.524,4.77142857 L23.6573333,4.77142857 L23.6573333,13.2285714 L30.704,13.2285714 L30.704,17.8 L23.6573333,17.8 L23.6573333,27.6285714 L32.524,27.6285714 L32.524,32.2 L18.524,32.2 Z M35.524,32.2 L35.524,0.2 L41.924,0.2 L46.8863188,19.3542857 L46.9790725,19.3542857 L46.9790725,0.2 L51.524,0.2 L51.524,32.2 L46.2834203,32.2 L40.1616812,8.84 L40.0689275,8.84 L40.0689275,32.2 L35.524,32.2 Z M53.524,32.2 L53.524,27.72 L63.0271056,4.77142857 L53.9898385,4.77142857 L53.9898385,0.2 L68.524,0.2 L68.524,4.68 L59.0208944,27.6285714 L68.524,27.6285714 L68.524,32.2 L53.524,32.2 Z M70.524,32.2 L75.6645836,0.2 L82.3834164,0.2 L87.524,32.2 L82.5637878,32.2 L81.661931,25.8457143 L81.661931,25.9371429 L76.0253263,25.9371429 L75.1234695,32.2 L70.524,32.2 Z M76.524,21.2 L81.524,21.2 L79.0492525,5.2 L78.9482424,5.2 L76.524,21.2 Z M90.524,32.2 L90.524,0.2 L97.9779877,0.2 C103.039337,0.2 105.524,2.98857143 105.524,8.10857143 L105.524,11.2628571 C105.524,16.3828571 103.039337,19.1714286 97.9779877,19.1714286 L95.5853497,19.1714286 L95.5853497,32.2 L90.524,32.2 Z M95.524,14.2 L97.9768302,14.2 C99.6277736,14.2 100.524,13.455814 100.524,11.1302326 L100.524,7.26976744 C100.524,4.94418605 99.6277736,4.2 97.9768302,4.2 L95.524,4.2 L95.524,14.2 Z" id="KENZAP"></path>
                </g>
            </g>
        </g>
    </g>
</svg>